{"title":"Tune Maari Entriyaan - GUNDAY (2014) - Arjun, Ranveer, Priyanka ","uid":9455180,"size":81553136,"categoryP":"video","categoryS":"music_videos","magnet":"?xt=urn:btih:e353d40e20e97daa1f8951211c2b2fa94698797f&amp;dn=Tune+Maari+Entriyaan+-+GUNDAY+%282014%29+-+Arjun%2C+Ranveer%2C+Priyanka+&amp;tr=udp%3A%2F%2Ftracker.openbittorrent.com%3A80&amp;tr=udp%3A%2F%2Fopen.demonii.com%3A1337&amp;tr=udp%3A%2F%2Ftracker.coppersurfer.tk%3A6969&amp;tr=udp%3A%2F%2Fexodus.desync.com%3A6969","seeders":1,"leechers":1,"uploader":"Palash995","files":1,"time":1389253770,"description":"[center][b]Tune Maari Entriyaan - GUNDAY (2014) - Arjun, Ranveer, Priyanka - HD 1080p\n\n[img]http://i1.ytimg.com/vi/ULhqgQRTDtM/mqdefault.jpg[/img]\n\n\nPresenting &quot;Tune Maari Entriyaan&quot; Song from the film &quot;GUNDAY&quot;. Starring Ranveer Singh, Arjun Kapoor, Priyanka Chopra &amp; Irrfan Khan.\n\nSong: Tune Maari Entriyaan\nSinger: Vishal Dadlani, KK, Neeti Mohan &amp; Bappi Lahiri\nLyrics: Irshad Kamil\nMusic: Sohail Sen\n\nGUNDAY, Directed by Ali Abbas Zafar and Produced by Aditya Chopra, is slated to release on 14th February 2014.\n\nThe film stars Ranveer Singh &amp; Arjun Kapoor, as Bikram and Bala, along with Priyanka Chopra and Irrfan Khan, in lead roles.\n\nBased in Calcutta during its most unsettled times in the '70's, the film deals with the inseparable life of Bikram and Bala, who grew from being small time, inconsequential coal thieves, to becoming the most powerful black marketing mafia-men. A story of two happy-go-lucky renegades who came to be known as - GUNDAY.\n\nCelebrate this Valentine's Day - GUNDAY style!\n\nScreenshots:-\n\n[img]http://img836.imageshack.us/img836/7003/ggyk.jpg[/img]\n\n[img]http://img17.imageshack.us/img17/1153/ytrx.jpg[/img]\n\n[img]http://img35.imageshack.us/img35/4271/8st2.jpg[/img]\n\nMedia Info:-\n\nGeneral\nComplete name : Tune Maari Entriyaan - GUNDAY (2014) - Arjun, Ranveer, Priyanka - HD 1080p {DAKU RG} {GreatPalash}.mp4\nFormat : MPEG-4\nFormat profile : Base Media\nCodec ID : isom\nFile size : 77.8 MiB\nDuration : 2mn 37s\nOverall bit rate mode : Variable\nOverall bit rate : 4 141 Kbps\nWriting application : Lavf53.31.100\n\nVideo\nID : 1\nFormat : AVC\nFormat/Info : Advanced Video Codec\nFormat profile : &lt;a class=&quot;__cf_email__&quot; href=&quot;/cdn-cgi/l/email-protection&quot; data-cfemail=&quot;1951707e7159552d3728&quot;&gt;[email&amp;#160;protected]&lt;/a&gt;&lt;script cf-hash='f9e31' type=&quot;text/javascript&quot;&gt;\n/* &lt;![CDATA[ */!function(){try{var t=&quot;currentScript&quot;in document?document.currentScript:function(){for(var t=document.getElementsByTagName(&quot;script&quot;),e=t.length;e--;)if(t[e].getAttribute(&quot;cf-hash&quot;))return t[e]}();if(t&amp;&amp;t.previousSibling){var e,r,n,i,c=t.previousSibling,a=c.getAttribute(&quot;data-cfemail&quot;);if(a){for(e=&quot;&quot;,r=parseInt(a.substr(0,2),16),n=2;a.length-n;n+=2)i=parseInt(a.substr(n,2),16)^r,e+=String.fromCharCode(i);e=document.createTextNode(e),c.parentNode.replaceChild(e,c)}}}catch(u){}}();/* ]]&gt; */&lt;/script&gt;\nFormat settings, CABAC : Yes\nFormat settings, ReFrames : 3 frames\nCodec ID : avc1\nCodec ID/Info : Advanced Video Coding\nDuration : 2mn 37s\nBit rate mode : Variable\nBit rate : 4 008 Kbps\nMaximum bit rate : 19.2 Mbps\nWidth : 1 920 pixels\nHeight : 1 080 pixels\nDisplay aspect ratio : 16:9\nFrame rate mode : Variable\nFrame rate : 24.000 fps\nMinimum frame rate : 23.982 fps\nMaximum frame rate : 24.030 fps\nStandard : NTSC\nColor space : YUV\nChroma subsampling : 4:2:0\nBit depth : 8 bits\nScan type : Progressive\nBits/(Pixel*Frame) : 0.081\nStream size : 75.3 MiB (97%)\nColor primaries : BT.709\nTransfer characteristics : BT.709\nMatrix coefficients : BT.709\n\nAudio\nID : 2\nFormat : AAC\nFormat/Info : Advanced Audio Codec\nFormat profile : LC\nCodec ID : 40\nDuration : 2mn 37s\nBit rate mode : Constant\nBit rate : 126 Kbps\nChannel(s) : 2 channels\nChannel positions : Front: L R\nSampling rate : 44.1 KHz\nCompression mode : Lossy\nStream size : 2.36 MiB (3%)\n\n[IMG]http://imageshack.us/a/img89/4822/zka.gif[/IMG]\n\n[IMG]http://imageshack.us/a/img200/185/tj8.gif[/IMG]\n\n[IMG]http://imageshack.us/a/img593/9603/ua8.gif[/IMG]\n\n[IMG]http://imageshack.us/a/img707/5608/ysmp.png[/IMG][/b][/center]","torrent":{"xt":"urn:btih:e353d40e20e97daa1f8951211c2b2fa94698797f","amp;dn":"Tune+Maari+Entriyaan+-+GUNDAY+%282014%29+-+Arjun%2C+Ranveer%2C+Priyanka+","amp;tr":["udp%3A%2F%2Ftracker.openbittorrent.com%3A80","udp%3A%2F%2Fopen.demonii.com%3A1337","udp%3A%2F%2Ftracker.coppersurfer.tk%3A6969","udp%3A%2F%2Fexodus.desync.com%3A6969"],"infoHash":"e353d40e20e97daa1f8951211c2b2fa94698797f","infoHashBuffer":{"type":"Buffer","data":[227,83,212,14,32,233,125,170,31,137,81,33,28,43,47,169,70,152,121,127]},"announce":[],"urlList":[]}}